<?xml version="1.0" standalone="no"?>
<!DOCTYPE svg PUBLIC "-//W3C//DTD SVG 20010904//EN"
 "http://www.w3.org/TR/2001/REC-SVG-20010904/DTD/svg10.dtd">
<svg version="1.0" xmlns="http://www.w3.org/2000/svg"
 width="170.000000pt" height="170.000000pt" viewBox="0 0 170.000000 170.000000"
 preserveAspectRatio="xMidYMid meet">

<g transform="translate(0.000000,170.000000) scale(0.100000,-0.100000)"
fill="#000000" stroke="none">
<path d="M0 850 l0 -850 850 0 850 0 0 850 0 850 -850 0 -850 0 0 -850z m920
814 c94 -27 127 -49 160 -108 30 -52 32 -54 59 -43 23 8 35 6 74 -17 47 -28
47 -28 47 -81 0 -49 3 -55 46 -99 44 -43 50 -46 99 -46 l52 0 27 -50 27 -50
-26 -44 c-26 -44 -26 -46 -11 -91 9 -25 16 -54 16 -65 0 -12 13 -26 33 -36 57
-29 67 -43 67 -96 0 -47 -1 -49 -47 -77 -44 -27 -49 -35 -65 -95 l-17 -65 25
-45 25 -45 -26 -46 c-24 -41 -31 -45 -64 -45 -21 0 -40 -2 -42 -4 -2 -3 -1
-62 4 -132 7 -118 6 -128 -12 -148 -10 -12 -21 -30 -23 -40 -4 -27 -86 -48
-162 -42 -32 2 -69 0 -82 -4 -94 -36 -556 -32 -712 6 -68 17 -76 22 -103 62
-30 44 -30 46 -28 171 l1 126 -34 3 c-29 3 -38 10 -58 48 l-25 45 26 46 25 46
-19 67 c-18 61 -24 69 -64 91 -43 24 -43 24 -43 80 0 56 1 57 42 82 36 21 44
33 63 90 l21 66 -25 46 -26 45 25 47 c25 48 26 48 80 51 46 3 60 8 88 35 17
17 32 39 32 49 0 27 29 105 53 143 12 18 33 53 47 76 25 42 82 86 130 99 49
14 262 10 320 -6z"/>
<path d="M606 1643 c-11 -3 -26 -11 -34 -19 -7 -8 -20 -14 -27 -14 -17 0 -59
-60 -110 -155 -34 -65 -36 -74 -31 -130 4 -33 8 -89 9 -125 5 -96 18 -174 28
-158 7 10 11 10 21 0 8 -8 8 -12 1 -12 -6 0 -3 -10 7 -22 67 -81 85 -100 104
-110 11 -6 0 9 -26 34 -27 24 -48 53 -48 64 1 18 1 18 14 2 7 -10 23 -18 35
-18 16 0 21 5 19 18 -2 12 -16 19 -43 22 -38 5 -40 7 -51 55 -6 28 -14 75 -17
106 -6 53 -5 56 19 67 33 16 34 16 34 -11 0 -50 65 -66 93 -23 15 22 15 25 -2
40 -20 18 -92 22 -123 5 -25 -13 -27 -11 -21 23 6 30 31 39 111 40 41 0 44 2
24 11 -16 7 -38 8 -73 1 -27 -6 -49 -7 -49 -2 0 11 41 95 68 138 l22 35 0 -28
c0 -37 27 -94 53 -112 26 -18 30 -14 18 18 -10 25 -10 25 20 10 20 -10 43 -13
72 -8 92 14 97 16 97 39 0 19 14 10 81 -57 77 -76 80 -81 74 -114 -3 -19 -6
-74 -6 -121 0 -74 -3 -92 -24 -128 -30 -51 -78 -94 -139 -123 -71 -35 -117
-38 -168 -11 -39 20 -41 20 -25 3 23 -26 22 -39 -8 -65 -14 -12 -25 -32 -25
-46 0 -32 -16 -44 -127 -97 -72 -34 -97 -51 -117 -82 -31 -48 -46 -137 -44
-268 l1 -100 7 130 c5 72 13 149 19 172 11 40 54 103 71 103 4 0 11 -24 14
-53 11 -82 23 -86 18 -5 l-4 73 58 25 c32 14 62 27 66 28 4 2 8 -29 8 -70 0
-140 30 -284 89 -438 28 -70 28 -74 14 -75 -7 0 -18 -6 -25 -13 -20 -20 7 -32
70 -32 50 0 52 1 40 20 -7 11 -18 20 -25 20 -7 0 -13 5 -13 10 0 6 5 10 10 10
6 0 10 11 10 24 0 22 14 51 122 256 25 47 65 138 89 203 l44 117 29 -6 c16 -4
48 -16 72 -29 23 -12 56 -27 74 -33 31 -11 31 -12 16 -39 -23 -41 -57 -125
-52 -130 2 -2 18 24 36 59 42 82 49 89 74 83 12 -3 -22 15 -74 40 -52 25 -106
48 -120 52 -54 13 -80 33 -80 61 1 23 9 31 60 54 44 20 63 35 71 55 14 38 5
88 -25 134 -20 29 -23 40 -13 46 22 14 64 96 77 152 16 68 8 149 -24 235 -57
159 -107 188 -331 192 -77 1 -149 0 -159 -3z m-46 -407 c0 -3 -4 -8 -10 -11
-5 -3 -10 -1 -10 4 0 6 5 11 10 11 6 0 10 -2 10 -4z m283 -530 c-27 -28 -68
-75 -92 -103 -24 -29 -49 -53 -56 -53 -6 0 -26 30 -44 68 -31 65 -32 68 -17
104 9 21 16 47 16 60 0 21 0 21 28 -5 15 -15 31 -27 35 -27 4 0 44 32 90 71
l82 71 3 -67 3 -67 -48 -52z m27 -142 c-34 -85 -176 -360 -190 -369 -18 -11
-65 198 -76 340 l-6 80 32 -42 c28 -39 36 -43 73 -43 36 0 53 9 117 60 41 32
76 58 78 56 1 -2 -11 -39 -28 -82z"/>
<path d="M1154 1349 c3 -18 13 -40 21 -49 20 -22 19 -36 -1 -19 -14 11 -16 10
-13 -6 1 -11 0 -27 -4 -35 -25 -66 -25 -78 -6 -96 34 -30 81 -112 100 -175 23
-74 24 -164 4 -244 -18 -66 -7 -96 21 -57 20 30 59 28 79 -2 19 -28 6 -66 -22
-66 -14 0 -14 2 2 20 15 16 15 22 5 35 -14 17 -50 21 -50 5 0 -22 2 -25 15
-22 10 2 13 -3 9 -13 -4 -8 1 -26 9 -39 9 -13 20 -39 25 -57 l8 -34 32 65 c46
94 66 181 65 285 -1 173 -58 311 -183 436 -41 42 -86 82 -99 89 -23 12 -24 12
-17 -21z m94 -111 c14 -14 16 -48 3 -48 -5 0 -11 9 -14 20 -6 23 -29 26 -47 5
-14 -16 -6 -35 16 -35 8 0 14 -4 14 -10 0 -19 -39 -10 -50 11 -24 43 43 92 78
57z m52 -67 c0 -5 -7 -11 -15 -15 -25 -9 -6 -37 21 -30 34 9 30 -1 -13 -30
-36 -25 -71 -26 -37 -2 13 10 14 17 7 31 -7 12 -13 14 -17 6 -8 -12 -36 -15
-36 -3 0 9 62 51 78 51 6 1 12 -3 12 -8z m50 -91 c0 -6 -7 -22 -16 -36 -17
-24 -17 -25 11 -14 20 8 26 7 23 -2 -5 -15 -76 -44 -85 -34 -4 3 3 20 15 36
l22 30 -25 -10 c-32 -12 -35 -12 -35 -1 0 4 17 15 38 24 46 19 52 20 52 7z
m30 -110 c11 -11 20 -24 20 -30 0 -17 -39 -50 -58 -50 -45 0 -60 73 -19 90 32
13 35 12 57 -10z m20 -105 c0 -10 -11 -15 -35 -15 -28 0 -35 -4 -35 -20 0 -11
-4 -20 -10 -20 -11 0 -14 53 -3 63 3 4 24 7 45 7 27 0 38 -4 38 -15z m-16 -91
c9 -8 16 -22 16 -29 0 -18 -28 -45 -46 -45 -31 0 -54 21 -54 49 0 15 3 31 7
34 12 13 62 7 77 -9z"/>
<path d="M1320 940 c0 -27 27 -37 47 -17 20 19 9 37 -23 37 -17 0 -24 -5 -24
-20z"/>
<path d="M1322 748 c4 -31 53 -34 53 -3 0 15 -8 21 -28 23 -25 3 -28 0 -25
-20z"/>
<path d="M778 1330 c34 -5 73 -12 85 -16 18 -5 20 -4 9 7 -8 8 -40 14 -85 16
l-72 2 63 -9z"/>
<path d="M332 1229 c-139 -184 -170 -434 -80 -639 l25 -55 17 33 c11 22 14 38
8 45 -15 19 -24 57 -14 57 5 0 12 -9 15 -21 3 -12 10 -18 16 -14 8 4 8 12 1
25 -6 11 -6 21 -1 25 5 3 12 -4 16 -15 9 -29 28 -25 23 5 -6 29 0 32 18 8 10
-14 15 -15 24 -6 9 8 9 20 0 49 -17 50 -16 188 2 239 15 46 4 85 -24 85 -10 0
-18 5 -18 10 0 6 7 10 15 10 8 0 15 7 15 17 0 15 -1 15 -18 0 -21 -19 -48 -22
-57 -7 -9 15 4 47 22 54 23 9 31 -4 10 -15 -17 -10 -24 -29 -9 -29 4 1 17 9
29 19 25 21 22 64 -4 54 -11 -5 -9 4 8 34 18 33 21 45 13 64 -10 22 -12 21
-52 -32z m17 -190 c35 -12 37 -32 3 -37 -25 -4 -30 -22 -7 -22 8 0 15 -4 15
-10 0 -13 -19 -13 -59 1 -35 12 -37 32 -3 37 25 4 30 22 7 22 -8 0 -15 5 -15
10 0 13 19 13 59 -1z m4 -99 c15 -14 -7 -17 -50 -8 -24 5 -43 14 -43 19 0 12
79 2 93 -11z m-10 -70 c5 -4 7 -18 5 -31 -3 -21 -9 -24 -50 -27 -29 -2 -48 1
-48 7 0 6 18 11 40 11 29 0 40 4 40 15 0 10 -10 15 -34 15 -34 0 -52 11 -39
24 8 7 74 -3 86 -14z m7 -99 c21 -41 13 -58 -32 -64 -47 -6 -60 3 -56 43 2 16
9 25 20 25 9 0 20 4 24 8 13 13 33 7 44 -12z"/>
<path d="M317 764 c-8 -8 3 -34 14 -34 11 0 12 27 0 34 -4 3 -11 3 -14 0z"/>
<path d="M280 741 c0 -12 5 -21 10 -21 6 0 10 6 10 14 0 8 -4 18 -10 21 -5 3
-10 -3 -10 -14z"/>
<path d="M761 1267 c-19 -7 -37 -19 -39 -27 -5 -13 -3 -13 11 -1 15 12 17 11
17 -8 0 -11 11 -28 25 -37 23 -15 27 -15 50 0 15 10 25 26 25 41 0 22 2 24 28
15 25 -9 26 -9 8 5 -11 8 -27 15 -35 15 -9 0 -25 2 -36 5 -11 2 -35 -1 -54 -8z"/>
<path d="M498 1193 c15 -15 34 -23 55 -22 32 1 32 1 -5 9 -21 4 -46 13 -56 21
-10 8 -7 4 6 -8z"/>
<path d="M617 1153 c-12 -12 -7 -40 10 -54 15 -13 15 -12 4 9 -7 13 -10 30 -7
38 6 15 3 18 -7 7z"/>
<path d="M1108 1109 c-26 -44 -23 -49 27 -49 25 0 45 4 45 10 0 5 -12 23 -27
40 l-28 31 -17 -32z"/>
<path d="M1088 1027 c12 -13 22 -35 22 -48 0 -44 12 -41 42 11 15 27 28 52 28
55 0 3 -26 5 -57 5 l-56 0 21 -23z"/>
<path d="M1153 966 c-24 -40 -43 -77 -43 -83 0 -5 -12 -25 -26 -44 -14 -19
-32 -46 -40 -62 -14 -26 -13 -28 10 -37 14 -5 55 -23 91 -40 37 -17 68 -30 70
-28 13 13 35 123 35 173 0 64 -20 148 -42 178 -12 15 -18 8 -55 -57z"/>
<path d="M637 1023 c18 -2 50 -2 70 0 21 2 7 4 -32 4 -38 0 -55 -2 -38 -4z"/>
<path d="M754 1021 c9 -15 -50 -23 -105 -16 -49 7 -50 6 -40 -14 13 -23 79
-45 107 -35 30 11 54 36 54 56 0 10 -5 18 -11 18 -5 0 -8 -4 -5 -9z"/>
<path d="M419 952 c-16 -57 -16 -161 0 -219 7 -24 14 -43 17 -43 18 0 106 54
110 68 5 15 20 51 32 74 2 4 -24 36 -57 72 -34 36 -61 70 -61 75 0 5 -6 11
-14 14 -10 4 -18 -9 -27 -41z"/>
<path d="M580 850 c0 -5 5 -10 11 -10 5 0 7 5 4 10 -3 6 -8 10 -11 10 -2 0 -4
-4 -4 -10z"/>
<path d="M1008 794 c-16 -8 -28 -20 -28 -27 0 -8 3 -8 9 2 7 11 10 11 17 -2 8
-13 12 -11 26 14 19 33 15 35 -24 13z"/>
<path d="M1272 590 c14 -19 33 -59 42 -89 16 -55 40 -256 32 -269 -2 -4 0 -23
5 -42 14 -56 0 184 -16 268 -14 73 -40 127 -72 153 -10 8 -5 -2 9 -21z"/>
<path d="M395 438 c-32 -79 -55 -173 -55 -224 0 -50 0 -51 -27 -46 -25 4 -26
3 -12 -9 9 -8 19 -21 22 -29 4 -12 6 -11 6 3 1 27 18 20 30 -13 16 -49 19 -35
5 32 -16 74 -12 102 28 226 31 97 33 134 3 60z"/>
<path d="M1096 413 c-10 -61 -7 -261 4 -268 6 -3 11 -18 11 -33 1 -16 3 -20 6
-10 3 14 20 17 101 20 57 2 100 -1 104 -7 4 -5 8 0 8 12 0 20 -3 21 -32 12
-45 -13 -132 -11 -162 3 -34 15 -40 53 -32 194 7 114 4 147 -8 77z"/>
<path d="M935 410 c-3 -5 3 -10 15 -10 12 0 18 5 15 10 -3 6 -10 10 -15 10 -5
0 -12 -4 -15 -10z"/>
<path d="M878 380 c-15 -15 -24 -30 -21 -34 3 -3 14 6 25 19 18 24 46 36 33
15 -3 -6 1 -7 10 -4 9 4 15 7 13 8 -2 1 -10 7 -18 13 -12 8 -21 5 -42 -17z"/>
<path d="M975 393 c-29 -14 -30 -14 -3 -8 23 4 27 2 22 -12 -5 -14 -4 -15 4
-4 14 20 34 3 27 -22 -5 -16 -4 -18 3 -8 8 11 10 11 15 0 4 -10 6 -9 6 3 1 9
-9 28 -21 41 -21 22 -25 23 -53 10z"/>
<path d="M880 340 c-6 -11 -8 -20 -6 -20 3 0 10 9 16 20 6 11 8 20 6 20 -3 0
-10 -9 -16 -20z"/>
<path d="M843 314 c-3 -8 -1 -20 6 -27 8 -8 11 -4 11 16 0 30 -7 35 -17 11z"/>
<path d="M1050 304 c0 -8 5 -12 10 -9 6 4 8 11 5 16 -9 14 -15 11 -15 -7z"/>
<path d="M871 293 c-1 -12 -6 -25 -11 -28 -6 -4 2 -18 17 -34 22 -23 32 -27
47 -19 10 5 33 7 52 4 26 -5 38 -2 54 14 11 11 20 28 20 38 -1 15 -2 14 -12
-3 -6 -11 -18 -26 -26 -32 -17 -14 -36 -17 -29 -5 3 4 -12 7 -34 7 -22 1 -33
-2 -26 -7 9 -6 8 -8 -4 -8 -9 0 -23 8 -32 18 -19 20 -23 37 -7 27 12 -7 12 2
0 30 -8 19 -9 19 -9 -2z"/>
<path d="M940 200 c0 -5 4 -10 9 -10 6 0 13 5 16 10 3 6 -1 10 -9 10 -9 0 -16
-4 -16 -10z"/>
</g>
</svg>
